# xmcd
#
# Track frame offsets: 
#        150
#        17775
#        31500
#        53565
#        71439
#        97641
#        113412
#        131731
#        152490
#        171967
#        187245
#        206429
#        217848
#
# Disc length: 3122 seconds
#
# Revision: 0
# Processed by: cddbd v1.5.1PL0 Copyright (c) Steve Scherf et al.
# Submitted via: ExactAudioCopy v0.95b2
#
DISCID=9c0c300d
DTITLE=B.E.P. - Hamburger Midnight
DYEAR=2002
DGENRE=Blues
TTITLE0=Political Man
TTITLE1=Hey Baby I Feel So Good
TTITLE2=Directly From My Heart To You
TTITLE3=Blonde Haired Woman
TTITLE4=44 Blues/How Many More Years
TTITLE5=Is It Me Or Is It You
TTITLE6=Hidaway
TTITLE7=Hamburger Midnight Blues
TTITLE8=I Won't Be Your Fool No More
TTITLE9=Evil
TTITLE10=On The Road Again
TTITLE11=Slinkin' Around
TTITLE12=Enron Blues
EXTD=
EXTT0=
EXTT1=
EXTT2=
EXTT3=
EXTT4=
EXTT5=
EXTT6=
EXTT7=
EXTT8=
EXTT9=
EXTT10=
EXTT11=
EXTT12=
PLAYORDER=
